700 0 1 0           
30 Autodesk Translation Framework 20 ASM 231.2.0.65535 NT 24 Tue Sep 23 19:32:38 2025 
1 9.999999999999999547e-07 1.000000000000000036e-10 
body $1 -1 $-1 $2 $-1 $3 #
rgb_color-st-attrib $-1 -1 $4 $-1 $0 0.09803921568627450844 0.09803921568627450844 0.09803921568627450844 #
lump $-1 -1 $-1 $-1 $5 $0 #
transform $-1 -1 1 0 0 0 1 0 0 0 1 0 0 0 1 no_rotate no_reflect no_shear #
ATTRIB_CUSTOM-attrib $-1 -1 $-1 $1 $0 @20 Timestamp_attrib_def 1 1758153251164563 #
shell $-1 -1 $-1 $-1 $-1 $6 $-1 $2 #
face $7 -1 $-1 $8 $9 $5 $-1 $10 forward single #
DXID-attrib $-1 -1 $-1 $-1 $6 @10 ASM ENTITY @1 0 #
face $11 -1 $-1 $12 $13 $5 $-1 $14 forward single #
loop $-1 -1 $-1 $-1 $15 $6 #
spline-surface $-1 -1 $-1 forward { exactsur full nubs 3 3 open periodic none none 7 15 
	0 3 0.1428571428571428492 1 0.2857142857142856984 1 0.5714285714285713969 1 0.6785714285714284921 1 
	0.8571428571428570953 1 1 3 
	0 3 0.005807837685620211368 1 0.01161567537124042274 1 0.01742351305686063584 1 0.02323135074248084547 1 
	0.02903918842810105858 1 0.03484702611372127168 1 0.04065486379934148131 1 0.04646270148496169095 1 0.05227053917058190058 1 
	0.05807837685620211021 1 0.06098229569901222197 1 0.06969405222744254336 1 0.07550188991306275299 1 0.08130972759868296262 3 
	0.1300099941882528753 126.699999999988421 3.268974511895245144e-06 
	0.2128855660914919512 126.6999999999882931 5.096543132896480621e-06 
	0.4211579727127374162 126.6637963201272328 1.06916291669877721e-05 
	1.020695883310819951 126.3936433026429711 2.553966978510956076e-05 
	1.774569321352097884 125.7552497238959575 4.4704937456349301e-05 
	2.332088912242226808 125.0146741166871323 5.849042734486413031e-05 
	2.563852994576796718 124.5467573703172661 6.459650786114524436e-05 
	2.59961120113060673 124.3131692261567025 6.486201459660006867e-05 
	2.600199883831669112 124.2299999999887206 6.537958861753103085e-05 
	0.1300116070494528597 126.699999999988421 -0.0194335910007098385 
	0.2128882324336080489 126.6999999999882789 -0.03182313630839295887 
	0.4211631873671340398 126.6637963201272186 -0.06295311613623424951 
	1.020708558072256356 126.3936433026429711 -0.1525719716313915231 
	1.774591327659577722 125.7552497238959575 -0.2652579900489775433 
	2.332117857988886378 125.0146741166871323 -0.3485960803245674033 
	2.56388478794933139 124.5467573703172377 -0.3832380068679109852 
	2.599643500794803774 124.3131692261567025 -0.3885867638723229378 
	2.600232141055619728 124.2299999999887206 -0.3886718199153136322 
	0.1211081559648258948 126.6999999999886199 -0.05834086869311272405 
	0.1983090662051016362 126.699999999988421 -0.09553451385053754463 
	0.3923211661369815917 126.6637963201274033 -0.1889894544594511172 
	0.9508083462053116275 126.3936433026431416 -0.4580304345768102525 
	1.653063869356899307 125.755249723896128 -0.7963214383159140652 
	2.172409738268563206 125.0146741166873028 -1.046507151162896943 
	2.388304986572207689 124.5467573703174224 -1.150505005849661533 
	2.421614475452555482 124.313169226156873 -1.166560945028917384 
	2.422163119362851891 124.2299999999889053 -1.166817373762418564 
	0.08383423031172884676 126.6999999999888047 -0.1051232055075233124 
	0.1372711448410471879 126.6999999999886342 -0.1721415833083918268 
	0.271576385490947092 126.6637963201275738 -0.3405362248780998691 
	0.658172643831048898 126.3936433026433406 -0.8253155332456397764 
	1.144295193544371259 125.7552497238962985 -1.434875168807172807 
	1.503796729267676824 125.0146741166874733 -1.885679558831500291 
	1.653248946092519489 124.5467573703176072 -2.073071233665620294 
	1.676297810712612302 124.3131692261570862 -2.102001894175368868 
	1.676684606302091263 124.2299999999890758 -2.102464110048131829 
	0.0299131749767237963 126.6999999999890747 -0.131056895522796174 
	0.04897437814557230318 126.6999999999889184 -0.2146096095893484934 
	0.09690439769930872527 126.6637963201278438 -0.4245454369626244229 
	0.2348419795991764647 126.3936433026435679 -1.028919770518137211 
	0.4083017604564911918 125.7552497238965259 -1.788855734906239725 
	0.5365714460665120811 125.0146741166877149 -2.350873628294109174 
	0.5899043050180886594 124.546757370317863 -2.584493341239317399 
	0.5981141007819025246 124.313169226157342 -2.620563693458122234 
	0.5982634996027045293 124.22999999998936 -2.621137910350697986 
	-0.0299209518962243598 126.69999999998916 -0.1310929430739982138 
	-0.04900584126320063627 126.6999999999890036 -0.214667718252946671 
	-0.09692213496166401931 126.6637963201279007 -0.4246625756703337196 
	-0.2349121540553424092 126.3936433026436816 -1.029202329596257348 
	-0.4084016948909930389 125.7552497238966112 -1.789348069941463004 
	-0.5367217456588582181 125.0146741166878144 -2.351519711757522835 
	-0.5900481075267491882 124.546757370317934 -2.585204682908142537 
	-0.5983063489145503677 124.313169226157413 -2.621282680977867763 
	-0.5984190378537044275 124.2299999999894169 -2.621858861375375049 
	-0.08381819761387826473 126.6999999999892452 -0.1051145518721260663 
	-0.1372630963799638115 126.6999999999890747 -0.1721289358377235956 
	-0.2715172019683727012 126.663796320127986 -0.3405075859909639235 
	-0.6580556359687599333 126.3936433026437385 -0.8252483356515899482 
	-1.144070313044794229 125.7552497238967106 -1.434756545812844175 
	-1.503519635135177612 125.0146741166878712 -1.885525209807065172 
	-1.652923480424103309 124.5467573703180335 -2.072899802987768325 
	-1.6760129454701167 124.3131692261574841 -2.101831847677043896 
	-1.676363952205611962 124.2299999999895164 -2.102291037337524315 
	-0.121142643321671073 126.6999999999893021 -0.05834599606426800478 
	-0.1983823061338996496 126.6999999999891315 -0.09554300131097258342 
	-0.3924262102947276842 126.6637963201280286 -0.189006027735821619 
	-0.9510872672701635722 126.3936433026438237 -0.4580707336783271799 
	-1.653529038146708485 125.7552497238967533 -0.7963913938746998156 
	-2.173038033101462041 125.0146741166879139 -1.046599177575889383 
	-2.388976531199080711 124.5467573703180619 -1.150606073038271893 
	-2.422336965281552068 124.3131692261575125 -1.166663648986719037 
	-2.422852866361418389 124.2299999999895164 -1.166919921184120135 
	-0.1344236570417151611 126.6999999999894726 -3.113999631037606777e-06 
	-0.2201315149449630248 126.6999999999892879 -5.215453910625778804e-06 
	-0.435448241248627077 126.6637963201281849 -1.004122022897932742e-05 
	-1.055356263324366717 126.3936433026439801 -2.450435771928424902e-05 
	-1.834807310243000922 125.7552497238969238 -4.246577965383739524e-05 
	-2.411270990132527547 125.0146741166880702 -5.592523973062858846e-05 
	-2.650882739905421559 124.5467573703182182 -6.134987809527114888e-05 
	-2.687901304607880348 124.3131692261576688 -6.249420862766558713e-05 
	-2.688473140760740954 124.2299999999897011 -6.227989397076245221e-05 
	-0.1211556260646123317 126.6999999999893589 0.05832582301043662265 
	-0.1984035714369306591 126.6999999999891884 0.09550936699737858082 
	-0.3924682643082106348 126.663796320128057 0.1889409181903683455 
	-0.9511891967623606892 126.3936433026438664 0.4579120640293993239 
	-1.653706243684179178 125.7552497238968101 0.7961162419953640157 
	-2.173270918342248059 125.0146741166879707 1.046236971195788623 
	-2.389232553083666666 124.5467573703181188 1.150208559195000202 
	-2.422596574383967916 124.3131692261575552 1.166259098656925675 
	-2.423112521220910143 124.2299999999895732 1.166516460306139313 
	-0.08380243433022403765 126.6999999999893589 0.1051278318810496826 
	-0.1372378929511774703 126.69999999998916 0.1721495570565915179 
	-0.2714658958232890051 126.6637963201280854 0.3405510531648556216 
	-0.6579321760979662814 126.3936433026439232 0.825352048432837937 
	-1.143854950473517373 125.7552497238968385 1.434938184359281221 
	-1.503237227755851224 125.0146741166879991 1.885762775456082396 
	-1.652612311168280446 124.546757370318133 2.073162264612489647 
	-1.675698944527526102 124.3131692261575836 2.10209518226872083 
	-1.676048686534532317 124.2299999999895874 2.102556637716561205 
	-0.03891258202176098996 126.6999999999892736 0.1267026079146167938 
	-0.06372923124443000131 126.6999999999890463 0.2074778113324641793 
	-0.1260498716960604393 126.6637963201279717 0.4104407722841615924 
	-0.3055045704640282911 126.3936433026437669 0.9947337809006113751 
	-0.5311328065225286998 125.7552497238966964 1.72942256937525185 
	-0.6980115049969172203 125.014674116687857 2.272766369564192424 
	-0.7673669220008133562 124.5467573703180051 2.498625860007317456 
	-0.7780982311118732619 124.3131692261574699 2.533494034788799087 
	-0.7782516403660039161 124.2299999999894737 2.534052158387596343 
	0.01949100360151929251 126.6999999999892168 0.133427866021215924 
	0.03190770811929317941 126.6999999999890036 0.2184909798269365488 
	0.06314285747950075522 126.6637963201279433 0.4322264178049534666 
	0.1530181169156268894 126.3936433026437385 1.047533549400189834 
	0.2660447754249768426 125.7552497238966538 1.821218586663531092 
	0.349620491831424629 125.0146741166878286 2.393402973735497596 
	0.3843750269615296977 124.5467573703179767 2.631250403772656732 
	0.3897162376028462938 124.3131692261574273 2.667970429113594832 
	0.3898200720985015577 124.2299999999894311 2.668557320518833542 
	0.07764461578796243157 126.6999999999889468 0.1130392571575327687 
	0.1271358852976537113 126.6999999999887336 0.1851036690640398552 
	0.2515255935934409548 126.6637963201276591 0.3661797397644739327 
	0.6095785587932311955 126.3936433026434543 0.8874636421822064136 
	1.059810163708177821 125.7552497238963838 1.542925220183242629 
	1.392768845374360298 125.0146741166875586 2.027675789538937678 
	1.531187107292483196 124.5467573703177067 2.229179225459553049 
	1.552533464557284582 124.3131692261571573 2.260286895859764833 
	1.55289231582664522 124.2299999999891611 2.260785143246437201 
	0.1210984787976260163 126.6999999999886626 0.05828029115821763834 
	0.198293068152405022 126.6999999999886199 0.09543488325861754218 
	0.3922898782106021276 126.6637963201274601 0.1887933921329562892 
	0.9507322976366928691 126.3936433026431985 0.457554633230249308 
	1.652931831512020722 125.7552497238960285 0.7954947316026887982 
	2.172236063788606675 125.0146741166873596 1.045420273348576012 
	2.388114226337000545 124.5467573703176214 1.149310614404970732 
	2.421420677467371885 124.3131692261569299 1.165348810292599291 
	2.421969576019149528 124.2299999999889479 1.165605823261168128 
	0.1300083813270528355 126.6999999999883784 0.01944012894973362257 
	0.2128828997493758812 126.6999999999882789 0.03183332939465874367 
	0.4211527580583407926 126.6637963201272186 0.06297449939456820078 
	1.020683208549383103 126.3936433026429285 0.1526230509709616823 
	1.77454731504461849 125.755249723895929 0.2653473999238901149 
	2.332059966495566794 125.0146741166871038 0.3487130611792569335 
	2.563821201204262046 124.5467573703172377 0.383367199883633103 
	2.599578901466409242 124.3131692261566599 0.3887164879015160279 
	2.60016762660771894 124.2299999999886779 0.3888025790925486169 
	0.1300099941882528753 126.699999999988421 3.268974511895245144e-06 
	0.2128855660914919512 126.6999999999882931 5.096543132896480621e-06 
	0.4211579727127374162 126.6637963201272328 1.06916291669877721e-05 
	1.020695883310819951 126.3936433026429711 2.553966978510956076e-05 
	1.774569321352097884 125.7552497238959575 4.4704937456349301e-05 
	2.332088912242226808 125.0146741166871323 5.849042734486413031e-05 
	2.563852994576796718 124.5467573703172661 6.459650786114524436e-05 
	2.59961120113060673 124.3131692261567025 6.486201459660006867e-05 
	2.600199883831669112 124.2299999999887206 6.537958861753103085e-05 
	0 
	
	0 
	0 
	5 0.1428571428571428492 0.2857142857142856984 0.5714285714285713969 0.6785714285714284921 0.8571428571428570953 
	0 
	0 
	14 0 0.005807837685620211368 0.01161567537124042274 0.01742351305686063584 0.02323135074248084547 0.02903918842810105858 0.03484702611372127168 0.04065486379934148131 0.04646270148496169095 0.05227053917058190058 0.05807837685620211021 0.06098229569901222197 0.06969405222744254336 0.07550188991306275299 
	F 1 F 0 F 1 F 0 } I I I I #
DXID-attrib $-1 -1 $-1 $-1 $8 @10 ASM ENTITY @1 1 #
face $16 -1 $-1 $17 $18 $5 $-1 $19 reversed single #
loop $-1 -1 $-1 $20 $21 $8 #
cone-surface $-1 -1 $-1 0 120.9000000000000057 0 0 1 0 -2.600000000000000533 0 0 1 I I 0 1 2.600000000000000533 forward I I I I #
coedge $-1 -1 $-1 $22 $23 $24 $25 forward $9 $26 #
DXID-attrib $-1 -1 $-1 $-1 $12 @10 ASM ENTITY @1 2 #
face $27 -1 $-1 $28 $29 $5 $-1 $30 forward single #
loop $-1 -1 $-1 $-1 $31 $12 #
plane-surface $-1 -1 $-1 0 126.7000000000000171 0 0 -1 0 0 0 -10 forward_v I I I I #
loop $-1 -1 $-1 $-1 $32 $8 #
coedge $33 -1 $-1 $21 $21 $34 $35 reversed $13 $-1 #
tcoedge-coedge $-1 -1 $-1 $24 $15 $32 $36 forward $9 $37 0 0.08130972759868296262 #
coedge $-1 -1 $-1 $15 $24 $31 $38 forward $9 $39 #
coedge $-1 -1 $-1 $23 $22 $15 $25 reversed $9 $40 #
edge $-1 -1 $-1 $41 0 $42 0.9999991897208743152 $15 $43 forward @7 tangent #
pcurve $-1 -1 $-1 1 $43 0 0 #
DXID-attrib $-1 -1 $-1 $-1 $17 @10 ASM ENTITY @1 3 #
face $44 -1 $-1 $45 $46 $5 $-1 $47 forward single #
loop $-1 -1 $-1 $48 $49 $17 #
cone-surface $-1 -1 $-1 0 111.7000000000000171 0 0 -1 0 5.275000000000000355 0 0 1 I I 0.5375573387615439902 0.8432271980573247117 5.275000000000000355 forward I I I I #
coedge $-1 -1 $-1 $31 $31 $23 $38 reversed $18 $-1 #
tcoedge-coedge $-1 -1 $-1 $32 $32 $22 $36 reversed $20 $50 -0.08130972759868296262 -0 #
ATTRIB_CUSTOM-attrib $-1 -1 $-1 $-1 $21 @17 sketch_attrib_def 1 1 3 @13 128 0 0 0 1 1 #
coedge $-1 -1 $-1 $34 $34 $21 $35 forward $51 $-1 #
edge $52 -1 $-1 $53 -3.141592653589793116 $53 3.141592653589793116 $34 $54 forward @7 unknown #
tedge-edge $-1 -1 $-1 $42 0 $42 0.08130972759868296262 $32 $55 forward @7 tangent 0.001152975173916146552 #
pcurve $-1 -1 $-1 0 forward { exppc nubs 1 periodic 2 
	0 1 0.08130972759868296262 1 
	1 0 
	1 0.08130972759868296262 
	0.01000000000000000021 
	spline forward { ref 0 } I I I I 
	} 0 0 #
edge $-1 -1 $-1 $41 -0.08130972759868296262 $41 0 $31 $56 forward @7 tangent #
pcurve $-1 -1 $-1 1 $56 0 0 #
pcurve $-1 -1 $-1 -1 $43 0 0.08130972759868296262 #
vertex $-1 -1 $-1 $25 $57 #
tvertex-vertex $-1 -1 $-1 $25 $58 0.0001998846636232088476 #
intcurve-curve $-1 -1 $-1 forward { parcur full nubs 3 open 7 
	0 3 0.1428571428571428492 1 0.2857142857142856984 1 0.5714285714285713969 1 0.6785714285714284921 1 
	0.8571428571428570953 1 1 3 
	0.1300099941882528753 126.699999999988421 3.268974511895245144e-06 
	0.2128855660914919512 126.6999999999882931 5.096543132896480621e-06 
	0.4211579727127374162 126.6637963201272328 1.06916291669877721e-05 
	1.020695883310819951 126.3936433026429711 2.553966978510956076e-05 
	1.774569321352097884 125.7552497238959575 4.4704937456349301e-05 
	2.332088912242226808 125.0146741166871323 5.849042734486413031e-05 
	2.563852994576796718 124.5467573703172661 6.459650786114524436e-05 
	2.59961120113060673 124.3131692261567025 6.486201459660006867e-05 
	2.600199883831669112 124.2299999999887206 6.537958861753103085e-05 
	0 
	
	spline forward { ref 0 } I I I I 
	null_surface 
	nubs 1 open 2 
	0 1 1 1 
	0 0 
	1 0 
	
	nullbs 
	I I 
	0 
	0 
	5 0.1428571428571428492 0.2857142857142856984 0.5714285714285713969 0.6785714285714284921 0.8571428571428570953 
	surf1 } F 0 F 0.9999991897208743152 #
DXID-attrib $-1 -1 $-1 $-1 $28 @10 ASM ENTITY @1 4 #
face $59 -1 $-1 $60 $61 $5 $-1 $62 forward single #
loop $-1 -1 $-1 $63 $64 $28 #
cone-surface $-1 -1 $-1 0 120.9000000000000057 0 0 -1 0 4 0 0 1 I I 0 1 4 forward I I I I #
loop $-1 -1 $-1 $-1 $65 $17 #
coedge $-1 -1 $-1 $49 $49 $66 $67 forward $29 $-1 #
pcurve $-1 -1 $-1 0 forward { exppc nubs 3 periodic 15 
	-0.08130972759868296262 3 -0.07550188991306275299 3 -0.06969405222744254336 3 -0.06098229569901222197 3 -0.05807837685620211021 3 
	-0.05227053917058190058 3 -0.04646270148496169095 3 -0.04065486379934148131 3 -0.03484702611372127168 3 -0.02903918842810105858 3 
	-0.02323135074248084547 3 -0.01742351305686063584 3 -0.01161567537124042274 3 -0.005807837685620211368 3 -0 3 
	1.280769230764892797 3.141567509527211755 
	1.28076923076487903 2.992064695344944347 
	1.280769230764933653 2.842528820363132258 
	1.280769230764967848 2.69285068592827681 
	1.280769230765002042 2.543172551493421363 
	1.280769230765029354 2.393324647151419349 
	1.28076923076505933 2.243874866577234783 
	1.280769230765104405 2.019700195715957936 
	1.280769230765152367 1.795185757938393412 
	1.28076923076516791 1.570894177986034146 
	1.280769230765173017 1.496130318001914317 
	1.280769230765172795 1.421276159331797517 
	1.280769230765179678 1.346435863541192157 
	1.280769230765193445 1.196755271959981881 
	1.28076923076520699 1.047180702109987482 
	1.280769230765217426 0.8976409317827860335 
	1.28076923076522764 0.7481011614555844735 
	1.280769230765220534 0.5983239907508753896 
	1.280769230765227418 0.4487457821999732976 
	1.280769230765234301 0.2991675736490712056 
	1.280769230765248068 0.1495387852375838211 
	1.280769230765248068 -4.183246126654438513e-05 
	1.280769230765248068 -0.1496224501601169099 
	1.28076923076522764 -0.2993039202366388762 
	1.280769230765217426 -0.4488509505882320449 
	1.28076923076520699 -0.5983979809398253247 
	1.280769230765200328 -0.7480644907000763011 
	1.280769230765189892 -0.8976383512587371438 
	1.280769230765179678 -1.047212211817397876 
	1.280769230765166133 -1.196862023883393134 
	1.280769230765155697 -1.346397097335757298 
	1.280769230765145483 -1.495932170788121685 
	1.280769230765152367 -1.645603157908349212 
	1.280769230765125055 -1.795195376061718306 
	1.280769230765097744 -1.944787594215087623 
	1.280769230765063549 -2.094460716365786901 
	1.280769230765032685 -2.243981462211031896 
	1.280769230765002042 -2.393502208056276892 
	1.280769230764988276 -2.543122346007633094 
	1.280769230764957634 -2.692736397976477569 
	1.280769230764926769 -2.842350449945322044 
	1.280769230764892797 -2.99211498347010707 
	1.280769230764892797 -3.141617797652374477 
	2.136193964991042332e-10 
	cone 0 120.9000000000000057 0 0 1 0 -2.600000000000000533 0 0 1 I I 0 1 2.600000000000000533 forward I I I I 
	} 0 0 #
loop $-1 -1 $-1 $68 $34 $69 #
DXID-attrib $-1 -1 $-1 $-1 $35 @10 ASM ENTITY @2 17 #
vertex $-1 -1 $-1 $35 $70 #
ellipse-curve $-1 -1 $-1 0 120.9000000000000057 0 -0 -1 -0 -2.600000000000000533 0 0 1 I I #
intcurve-curve $-1 -1 $-1 forward { parcur full nubs 3 periodic 15 
	0 3 0.005807837685620211368 1 0.01161567537124042274 1 0.01742351305686063584 1 0.02323135074248084547 1 
	0.02903918842810105858 1 0.03484702611372127168 1 0.04065486379934148131 1 0.04646270148496169095 1 0.05227053917058190058 1 
	0.05807837685620211021 1 0.06098229569901222197 1 0.06969405222744254336 1 0.07550188991306275299 1 0.08130972759868296262 3 
	2.600199883831669112 124.2299999999887206 6.537958861753103085e-05 
	2.600232141055619728 124.2299999999887206 -0.3886718199153136322 
	2.422163119362851891 124.2299999999889053 -1.166817373762418564 
	1.676684606302091263 124.2299999999890758 -2.102464110048131829 
	0.5982634996027045293 124.22999999998936 -2.621137910350697986 
	-0.5984190378537044275 124.2299999999894169 -2.621858861375375049 
	-1.676363952205611962 124.2299999999895164 -2.102291037337524315 
	-2.422852866361418389 124.2299999999895164 -1.166919921184120135 
	-2.688473140760740954 124.2299999999897011 -6.227989397076245221e-05 
	-2.423112521220910143 124.2299999999895732 1.166516460306139313 
	-1.676048686534532317 124.2299999999895874 2.102556637716561205 
	-0.7782516403660039161 124.2299999999894737 2.534052158387596343 
	0.3898200720985015577 124.2299999999894311 2.668557320518833542 
	1.55289231582664522 124.2299999999891611 2.260785143246437201 
	2.421969576019149528 124.2299999999889479 1.165605823261168128 
	2.60016762660771894 124.2299999999886779 0.3888025790925486169 
	2.600199883831669112 124.2299999999887206 6.537958861753103085e-05 
	0 
	
	spline forward { ref 0 } I I I I 
	null_surface 
	nubs 1 periodic 2 
	0 1 0.08130972759868296262 1 
	1 0 
	1 0.08130972759868296262 
	
	nullbs 
	I I 
	0 
	0 
	14 0 0.005807837685620211368 0.01161567537124042274 0.01742351305686063584 0.02323135074248084547 0.02903918842810105858 0.03484702611372127168 0.04065486379934148131 0.04646270148496169095 0.05227053917058190058 0.05807837685620211021 0.06098229569901222197 0.06969405222744254336 0.07550188991306275299 
	surf1 } I I #
intcurve-curve $-1 -1 $-1 reversed { parcur full nubs 3 periodic 15 
	0 3 0.005807837685620211368 1 0.01161567537124042274 1 0.01742351305686063584 1 0.02323135074248084547 1 
	0.02903918842810105858 1 0.03484702611372127168 1 0.04065486379934148131 1 0.04646270148496169095 1 0.05227053917058190058 1 
	0.05807837685620211021 1 0.06098229569901222197 1 0.06969405222744254336 1 0.07550188991306275299 1 0.08130972759868296262 3 
	0.1300099941882528753 126.699999999988421 3.268974511895245144e-06 
	0.1300116070494528597 126.699999999988421 -0.0194335910007098385 
	0.1211081559648258948 126.6999999999886199 -0.05834086869311272405 
	0.08383423031172884676 126.6999999999888047 -0.1051232055075233124 
	0.0299131749767237963 126.6999999999890747 -0.131056895522796174 
	-0.0299209518962243598 126.69999999998916 -0.1310929430739982138 
	-0.08381819761387826473 126.6999999999892452 -0.1051145518721260663 
	-0.121142643321671073 126.6999999999893021 -0.05834599606426800478 
	-0.1344236570417151611 126.6999999999894726 -3.113999631037606777e-06 
	-0.1211556260646123317 126.6999999999893589 0.05832582301043662265 
	-0.08380243433022403765 126.6999999999893589 0.1051278318810496826 
	-0.03891258202176098996 126.6999999999892736 0.1267026079146167938 
	0.01949100360151929251 126.6999999999892168 0.133427866021215924 
	0.07764461578796243157 126.6999999999889468 0.1130392571575327687 
	0.1210984787976260163 126.6999999999886626 0.05828029115821763834 
	0.1300083813270528355 126.6999999999883784 0.01944012894973362257 
	0.1300099941882528753 126.699999999988421 3.268974511895245144e-06 
	0 
	
	spline forward { ref 0 } I I I I 
	null_surface 
	nubs 1 periodic 2 
	0 1 0.08130972759868296262 1 
	0 0 
	0 0.08130972759868296262 
	
	nullbs 
	I I 
	0 
	0 
	14 0 0.005807837685620211368 0.01161567537124042274 0.01742351305686063584 0.02323135074248084547 0.02903918842810105858 0.03484702611372127168 0.04065486379934148131 0.04646270148496169095 0.05227053917058190058 0.05807837685620211021 0.06098229569901222197 0.06969405222744254336 0.07550188991306275299 
	surf1 } I I #
point $-1 -1 $-1 0.1300099941882528753 126.699999999988421 3.268974511895245144e-06 #
point $-1 -1 $-1 2.600199883831669112 124.2299999999887206 6.537958861753103085e-05 #
DXID-attrib $-1 -1 $-1 $-1 $45 @10 ASM ENTITY @1 5 #
face $71 -1 $-1 $72 $73 $5 $-1 $74 forward single #
loop $-1 -1 $-1 $75 $76 $45 #
torus-surface $-1 -1 $-1 0 106.0000000000000142 0 -0 -1 -0 8.049999999999998934 -1.500000000000000222 0 0 -1 forward_v I I I I #
loop $-1 -1 $-1 $-1 $66 $28 #
coedge $77 -1 $-1 $64 $64 $78 $79 reversed $46 $-1 #
coedge $-1 -1 $-1 $65 $65 $80 $81 forward $48 $-1 #
coedge $-1 -1 $-1 $66 $66 $49 $67 reversed $63 $-1 #
edge $-1 -1 $-1 $82 -3.141592653589793116 $82 3.141592653589793116 $66 $83 forward @7 unknown #
loop $-1 -1 $-1 $-1 $78 $69 #
face $84 -1 $-1 $85 $51 $5 $-1 $86 forward single #
point $-1 -1 $-1 2.600000000000000533 120.9000000000000057 -3.184081677783119177e-16 #
DXID-attrib $-1 -1 $-1 $-1 $60 @10 ASM ENTITY @1 6 #
face $87 -1 $-1 $69 $88 $5 $-1 $89 reversed single #
loop $-1 -1 $-1 $90 $80 $60 #
cone-surface $-1 -1 $-1 0 109.7000000000000028 0 0 -1 0 6.549999999999998934 0 0 1 I I 0 1 6.549999999999998934 forward I I I I #
loop $-1 -1 $-1 $-1 $91 $45 #
coedge $-1 -1 $-1 $76 $76 $92 $93 forward $61 $-1 #
ATTRIB_CUSTOM-attrib $-1 -1 $-1 $-1 $64 @17 sketch_attrib_def 1 1 3 @13 123 0 0 0 1 1 #
coedge $94 -1 $-1 $78 $78 $64 $79 forward $68 $-1 #
edge $95 -1 $-1 $96 -3.141592653589793116 $96 3.141592653589793116 $78 $97 forward @7 unknown #
coedge $98 -1 $-1 $80 $80 $65 $81 reversed $73 $-1 #
edge $99 -1 $-1 $100 -3.141592653589793116 $100 3.141592653589793116 $80 $101 forward @7 unknown #
vertex $-1 -1 $-1 $67 $102 #
ellipse-curve $-1 -1 $-1 0 113.7000000000000171 0 -0 -1 -0 4 0 0 1 I I #
DXID-attrib $-1 -1 $-1 $-1 $69 @10 ASM ENTITY @1 8 #
face $103 -1 $-1 $104 $105 $5 $-1 $106 forward single #
plane-surface $-1 -1 $-1 0 120.9000000000000057 0 0 1 0 10 0 0 forward_v I I I I #
DXID-attrib $-1 -1 $-1 $-1 $72 @10 ASM ENTITY @1 7 #
loop $-1 -1 $-1 $107 $108 $72 #
plane-surface $-1 -1 $-1 0 104.5000000000000142 0 -0 -1 -0 0 0 -10 forward_v I I I I #
loop $-1 -1 $-1 $-1 $92 $60 #
coedge $-1 -1 $-1 $91 $91 $109 $110 forward $75 $-1 #
coedge $-1 -1 $-1 $92 $92 $76 $93 reversed $90 $-1 #
edge $-1 -1 $-1 $111 -3.141592653589793116 $111 3.141592653589793116 $92 $112 forward @7 tangent #
ATTRIB_CUSTOM-attrib $-1 -1 $-1 $-1 $78 @17 sketch_attrib_def 1 1 3 @13 123 0 0 0 1 1 #
DXID-attrib $-1 -1 $-1 $-1 $79 @10 ASM ENTITY @2 20 #
vertex $-1 -1 $-1 $79 $113 #
ellipse-curve $-1 -1 $-1 0 120.9000000000000057 0 0 1 0 4 0 0 1 I I #
ATTRIB_CUSTOM-attrib $-1 -1 $-1 $-1 $80 @17 sketch_attrib_def 1 1 3 @13 120 0 0 0 1 1 #
DXID-attrib $-1 -1 $-1 $-1 $81 @10 ASM ENTITY @2 19 #
vertex $-1 -1 $-1 $81 $114 #
ellipse-curve $-1 -1 $-1 0 109.7000000000000028 0 0 1 0 6.549999999999998934 0 0 1 I I #
point $-1 -1 $-1 -4 113.7000000000000171 -4.898587196589412829e-16 #
DXID-attrib $-1 -1 $-1 $-1 $85 @10 ASM ENTITY @1 9 #
face $115 -1 $-1 $116 $117 $5 $-1 $118 forward single #
loop $-1 -1 $-1 $119 $120 $85 #
cone-surface $-1 -1 $-1 0 101.7000000000000171 0 0 1 0 9.25 0 0 1 I I -0.3656523724229941985 0.9307514934403469109 9.25 forward I I I I #
loop $-1 -1 $-1 $-1 $109 $72 #
coedge $-1 -1 $-1 $108 $108 $121 $122 reversed $88 $-1 #
coedge $-1 -1 $-1 $109 $109 $91 $110 reversed $107 $-1 #
edge $-1 -1 $-1 $123 -3.141592653589793116 $123 3.141592653589793116 $109 $124 forward @7 tangent #
vertex $-1 -1 $-1 $93 $125 #
ellipse-curve $-1 -1 $-1 0 106.0000000000000142 0 -0 -1 -0 6.549999999999998934 0 0 1 I I #
point $-1 -1 $-1 -4 120.9000000000000057 4.898587196589412829e-16 #
point $-1 -1 $-1 -6.549999999999998934 109.7000000000000028 8.021436534415163248e-16 #
DXID-attrib $-1 -1 $-1 $-1 $104 @10 ASM ENTITY @2 10 #
face $126 -1 $-1 $127 $128 $5 $-1 $129 forward single #
loop $-1 -1 $-1 $130 $131 $104 #
cone-surface $-1 -1 $-1 0 34.5 0 0 1 0 10.65000000000000213 0 0 1 I I -0.02082881368183568324 0.9997830567281120739 10.65000000000000213 forward I I I I #
loop $-1 -1 $-1 $-1 $121 $85 #
coedge $-1 -1 $-1 $120 $120 $132 $133 reversed $105 $-1 #
coedge $-1 -1 $-1 $121 $121 $108 $122 forward $119 $-1 #
edge $-1 -1 $-1 $134 0 $134 6.283185307179586232 $121 $135 forward @7 unknown #
vertex $-1 -1 $-1 $110 $136 #
ellipse-curve $-1 -1 $-1 0 104.5000000000000142 0 0 1 0 8.049999999999998934 0 0 1 I I #
point $-1 -1 $-1 -6.549999999999998934 106.0000000000000142 -8.021436534415163248e-16 #
DXID-attrib $-1 -1 $-1 $-1 $116 @10 ASM ENTITY @2 11 #
face $137 -1 $-1 $138 $139 $5 $-1 $140 reversed single #
loop $-1 -1 $-1 $141 $142 $116 #
cone-surface $-1 -1 $-1 0 34.5 0 0 -1 0 10.65000000000000213 0 0 1 I I -0.04233489307360445431 0.9991034765370634396 10.65000000000000213 forward I I I I #
loop $-1 -1 $-1 $-1 $132 $104 #
coedge $-1 -1 $-1 $131 $131 $143 $144 reversed $117 $-1 #
coedge $-1 -1 $-1 $132 $132 $120 $133 forward $130 $-1 #
edge $-1 -1 $-1 $145 0 $145 6.283185307179586232 $132 $146 forward @7 unknown #
vertex $-1 -1 $-1 $122 $147 #
ellipse-curve $-1 -1 $-1 0 104.5000000000000142 0 -0 -1 -0 8.150000000000000355 0 0 1 I I #
point $-1 -1 $-1 -8.049999999999998934 104.5000000000000142 9.858406733136192443e-16 #
DXID-attrib $-1 -1 $-1 $-1 $127 @10 ASM ENTITY @2 12 #
face $148 -1 $-1 $-1 $149 $5 $-1 $150 forward single #
loop $-1 -1 $-1 $-1 $151 $127 #
plane-surface $-1 -1 $-1 0 0 0 0 1 0 0 0 10 forward_v I I I I #
loop $-1 -1 $-1 $-1 $143 $116 #
coedge $-1 -1 $-1 $142 $142 $152 $153 reversed $128 $-1 #
coedge $-1 -1 $-1 $143 $143 $131 $144 forward $141 $-1 #
edge $-1 -1 $-1 $154 0 $154 6.283185307179586232 $143 $155 forward @7 unknown #
vertex $-1 -1 $-1 $133 $156 #
ellipse-curve $-1 -1 $-1 0 101.7000000000000171 0 -0 -1 -0 9.25 0 0 1 I I #
point $-1 -1 $-1 8.150000000000000355 104.5000000000000142 0 #
DXID-attrib $-1 -1 $-1 $-1 $138 @10 ASM ENTITY @2 13 #
loop $-1 -1 $-1 $157 $158 $138 #
cone-surface $-1 -1 $-1 0 5 0 0 -1 0 9.399999999999998579 0 0 1 I I -0.488603368931843085 0.872506015949720104 9.399999999999998579 forward I I I I #
coedge $-1 -1 $-1 $151 $151 $158 $159 reversed $139 $-1 #
coedge $-1 -1 $-1 $152 $152 $142 $153 forward $157 $-1 #
edge $-1 -1 $-1 $160 0 $160 6.283185307179586232 $152 $161 forward @7 unknown #
vertex $-1 -1 $-1 $144 $162 #
ellipse-curve $-1 -1 $-1 0 34.5 0 -0 -1 -0 10.65000000000000213 0 0 1 I I #
point $-1 -1 $-1 9.25 101.7000000000000171 0 #
loop $-1 -1 $-1 $-1 $152 $138 #
coedge $-1 -1 $-1 $158 $158 $151 $159 forward $149 $-1 #
edge $-1 -1 $-1 $163 0 $163 6.283185307179586232 $158 $164 forward @7 unknown #
vertex $-1 -1 $-1 $153 $165 #
ellipse-curve $-1 -1 $-1 0 5 0 -0 -1 -0 9.399999999999998579 0 0 1 I I #
point $-1 -1 $-1 10.65000000000000213 34.5 0 #
vertex $-1 -1 $-1 $159 $166 #
ellipse-curve $-1 -1 $-1 0 0 0 0 1 0 6.600000000000000533 0 0 1 I I #
point $-1 -1 $-1 9.399999999999998579 5 0 #
point $-1 -1 $-1 6.600000000000000533 0 0 #
End-of-ACIS-data 